<svg xmlns="http://www.w3.org/2000/svg" width="1440" height="1153" viewBox="0 0 1440 1153" fill="none">
<g clip-path="url(#clip0_1_361)">
<rect width="1440" height="1153" fill="white"/>

<g opacity="0.8">
<path fill-rule="evenodd" clip-rule="evenodd" d="M-81.7899 -40.0418C-34.25 -31.0674 62.214 45.6115 98.9723 87.4865C133.132 126.401 146.346 146.375 159.649 203.471C172.408 258.235 159.321 344.28 156.062 401.142C151.886 474.013 190.414 576.912 144.342 615.42C96.9481 655.032 38.1705 583.275 -16.4212 563.7C-52.7113 550.688 -87.2397 540.994 -121.494 520.1C-164.116 494.102 -223.481 485.983 -239.919 427.375C-256.333 368.849 -202.849 317.576 -195.468 256.348C-186.384 180.988 -230.488 88.6975 -192.316 32.4982C-155.347 -21.9293 -136.792 -50.4248 -81.7899 -40.0418Z" fill="url(#paint1_linear_1_361)" fill-opacity="0.3"/>
<path fill-rule="evenodd" clip-rule="evenodd" d="M-98.2132 72.0822C-56.1038 72.1661 -14.4496 84.4072 21.2936 114.953C54.5106 143.34 76.4616 188.03 93.2194 235.678C109.293 281.379 94.576 321.602 96.9275 371.743C99.9403 436.002 145.318 527.069 108.811 568.173C71.2553 610.458 13.6644 557.428 -35.5363 549.245C-68.2419 543.804 -99.1163 540.973 -130.772 528.325C-170.161 512.588 -222.464 515.176 -242.081 466.721C-261.672 418.333 -219.89 364.883 -219.059 310.259C-218.036 243.029 -264.754 169.693 -236.72 114.44C-209.57 60.9296 -146.933 71.9854 -98.2132 72.0822Z" fill="url(#paint2_linear_1_361)" fill-opacity="0.4"/>
<path opacity="0.4" fill-rule="evenodd" clip-rule="evenodd" d="M-88.6289 170.849C-49.6353 185.12 -13.3557 210.402 13.997 250.5C39.4159 287.763 51.3256 336.202 57.867 385.604C64.1407 432.987 57.6883 478.694 50.4137 525.531C41.0901 585.554 51.1947 670.74 9.62603 696.178C-33.1347 722.346 -76.4887 654.238 -120.523 630.137C-149.795 614.117 -177.862 601.11 -204.803 578.825C-238.325 551.095 -287.264 535.843 -296.302 484.735C-305.328 433.697 -256.547 398.701 -245.479 348.822C-231.856 287.432 -261.309 204.342 -224.922 163.054C-189.683 123.07 -133.743 154.336 -88.6289 170.849Z" fill="url(#paint3_linear_1_361)" fill-opacity="0.6"/>
</g>
<g opacity="0.7">
<path fill-rule="evenodd" clip-rule="evenodd" d="M1140.42 1269.55C1125.92 1223.39 1148.06 1102.17 1167.66 1050.01C1185.87 1001.54 1197.26 980.471 1241.34 941.82C1283.62 904.749 1365.67 875.723 1417.35 851.789C1483.59 821.116 1556.17 738.626 1611.85 761.101C1669.12 784.221 1633.55 869.888 1642.03 927.26C1647.66 965.398 1655.39 1000.42 1653.12 1040.48C1650.28 1090.32 1671.11 1146.5 1627.18 1188.63C1583.3 1230.7 1512.87 1207.71 1455.39 1230.06C1384.65 1257.58 1324.06 1339.99 1256.5 1332.82C1191.07 1325.88 1157.19 1322.95 1140.42 1269.55Z" fill="url(#paint4_linear_1_361)" fill-opacity="0.3"/>
<path fill-rule="evenodd" clip-rule="evenodd" d="M1247.04 1231.17C1227.26 1193.99 1218.42 1151.49 1228.5 1105.57C1237.88 1062.89 1266.94 1022.46 1301.06 985.219C1333.79 949.497 1376.19 943.513 1419.31 917.799C1474.55 884.847 1533.47 801.894 1586.93 814.71C1641.93 827.895 1622.31 903.685 1638.29 950.932C1648.91 982.34 1660.97 1010.9 1664.74 1044.78C1669.44 1086.94 1696.38 1131.84 1662.89 1171.99C1629.46 1212.08 1562.62 1200.43 1514.06 1225.45C1454.29 1256.25 1411.64 1332.02 1349.69 1333.35C1289.7 1334.63 1269.92 1274.18 1247.04 1231.17Z" fill="url(#paint5_linear_1_361)" fill-opacity="0.4"/>
<path opacity="0.5" fill-rule="evenodd" clip-rule="evenodd" d="M1329.62 1176.15C1323.82 1135.04 1329.02 1091.12 1351.48 1048.1C1372.36 1008.11 1409.46 974.772 1449.94 945.712C1488.77 917.839 1532.12 901.981 1576.86 886.314C1634.19 866.238 1704.55 817.165 1746.58 841.831C1789.82 867.204 1750.19 937.548 1749.7 987.744C1749.37 1021.11 1751.13 1052 1744.18 1086.26C1735.53 1128.9 1745.15 1179.25 1704.34 1211.31C1663.59 1243.33 1609.73 1216.81 1560.52 1230.57C1499.96 1247.5 1440.57 1312.65 1387.01 1300.02C1335.13 1287.8 1336.33 1223.72 1329.62 1176.15Z" fill="url(#paint6_linear_1_361)" fill-opacity="0.6"/>
</g>
</g>
<defs>
<linearGradient id="paint0_linear_1_361" x1="664" y1="43" x2="664" y2="91" gradientUnits="userSpaceOnUse">
<stop stop-color="#112232"/>
<stop offset="1" stop-color="#4D6B88" stop-opacity="0"/>
</linearGradient>
<linearGradient id="paint1_linear_1_361" x1="-180.687" y1="534.041" x2="64.3511" y2="101.829" gradientUnits="userSpaceOnUse">
<stop stop-color="#9EE6F7" stop-opacity="0"/>
<stop offset="1" stop-color="#9EE6F7" stop-opacity="0.46"/>
</linearGradient>
<linearGradient id="paint2_linear_1_361" x1="-191.283" y1="546.344" x2="-38.3052" y2="121.941" gradientUnits="userSpaceOnUse">
<stop stop-color="#9EE6F7" stop-opacity="0"/>
<stop offset="1" stop-color="#9EE6F7" stop-opacity="0.46"/>
</linearGradient>
<linearGradient id="paint3_linear_1_361" x1="-264.255" y1="574.973" x2="-16.7186" y2="256.916" gradientUnits="userSpaceOnUse">
<stop stop-color="#005AE2"/>
<stop offset="1" stop-color="#73E6FF" stop-opacity="0.38"/>
</linearGradient>
<linearGradient id="paint4_linear_1_361" x1="1693.32" y1="1086.11" x2="1196.63" y2="1073.78" gradientUnits="userSpaceOnUse">
<stop stop-color="#9EE6F7" stop-opacity="0"/>
<stop offset="1" stop-color="#9EE6F7" stop-opacity="0.46"/>
</linearGradient>
<linearGradient id="paint5_linear_1_361" x1="1709.16" y1="1089.65" x2="1262.77" y2="1154.83" gradientUnits="userSpaceOnUse">
<stop stop-color="#9EE6F7" stop-opacity="0"/>
<stop offset="1" stop-color="#9EE6F7" stop-opacity="0.46"/>
</linearGradient>
<linearGradient id="paint6_linear_1_361" x1="1768.82" y1="1140.51" x2="1371.62" y2="1072.16" gradientUnits="userSpaceOnUse">
<stop stop-color="#005AE2"/>
<stop offset="1" stop-color="#73E6FF" stop-opacity="0.38"/>
</linearGradient>
<clipPath id="clip0_1_361">
<rect width="1440" height="1153" fill="white"/>
</clipPath>
</defs>
</svg>