<svg width="833" height="337" viewBox="0 0 833 337" fill="none" xmlns="http://www.w3.org/2000/svg">
<path d="M155.677 51.1107C204.228 -53.1745 243.407 69.5845 267.623 117.021C302.043 184.448 387.301 244.6 184.971 265.011C-17.3584 285.422 94.9891 181.467 155.677 51.1107Z" fill="#E2E9F0"/>
<g filter="url(#filter0_b_1_139)">
<rect x="65" y="24" width="768" height="224" rx="24" fill="#FEFEFE" fill-opacity="0.1"/>
<path d="M175 87.3333H185C187.189 87.3333 189.356 87.7643 191.378 88.6019C193.4 89.4395 195.237 90.6672 196.785 92.2148C198.333 93.7624 199.56 95.5998 200.398 97.6219C201.236 99.644 201.667 101.811 201.667 104C201.667 106.189 201.236 108.356 200.398 110.378C199.56 112.4 198.333 114.237 196.785 115.785C195.237 117.333 193.4 118.56 191.378 119.398C189.356 120.235 187.189 120.667 185 120.667H175M155 120.667H145C142.811 120.667 140.644 120.235 138.622 119.398C136.6 118.56 134.763 117.333 133.215 115.785C130.089 112.659 128.333 108.42 128.333 104C128.333 99.5796 130.089 95.3404 133.215 92.2148C136.34 89.0892 140.58 87.3333 145 87.3333H155" stroke="#141414" stroke-width="2" stroke-linecap="round" stroke-linejoin="round"/>
<path d="M151.667 104H178.333" stroke="#141414" stroke-width="2" stroke-linecap="round" stroke-linejoin="round"/>
<path d="M247 87.3333H257C259.189 87.3333 261.356 87.7643 263.378 88.6019C265.4 89.4395 267.237 90.6672 268.785 92.2148C270.333 93.7624 271.56 95.5998 272.398 97.6219C273.236 99.644 273.667 101.811 273.667 104C273.667 106.189 273.236 108.356 272.398 110.378C271.56 112.4 270.333 114.237 268.785 115.785C267.237 117.333 265.4 118.56 263.378 119.398C261.356 120.235 259.189 120.667 257 120.667H247M227 120.667H217C214.811 120.667 212.644 120.235 210.622 119.398C208.6 118.56 206.763 117.333 205.215 115.785C202.089 112.659 200.333 108.42 200.333 104C200.333 99.5796 202.089 95.3404 205.215 92.2148C208.34 89.0892 212.58 87.3333 217 87.3333H227" stroke="#141414" stroke-width="2" stroke-linecap="round" stroke-linejoin="round"/>
<path d="M223.667 104H250.333" stroke="#141414" stroke-width="2" stroke-linecap="round" stroke-linejoin="round"/>
<path d="M319 87.3333H329C331.189 87.3333 333.356 87.7643 335.378 88.6019C337.4 89.4395 339.237 90.6672 340.785 92.2148C342.333 93.7624 343.56 95.5998 344.398 97.6219C345.236 99.644 345.667 101.811 345.667 104C345.667 106.189 345.236 108.356 344.398 110.378C343.56 112.4 342.333 114.237 340.785 115.785C339.237 117.333 337.4 118.56 335.378 119.398C333.356 120.235 331.189 120.667 329 120.667H319M299 120.667H289C286.811 120.667 284.644 120.235 282.622 119.398C280.6 118.56 278.763 117.333 277.215 115.785C274.089 112.659 272.333 108.42 272.333 104C272.333 99.5796 274.089 95.3404 277.215 92.2148C280.34 89.0892 284.58 87.3333 289 87.3333H299" stroke="#141414" stroke-width="2" stroke-linecap="round" stroke-linejoin="round"/>
<path d="M295.667 104H322.333" stroke="#141414" stroke-width="2" stroke-linecap="round" stroke-linejoin="round"/>
<path d="M369 103C368.448 103 368 103.448 368 104C368 104.552 368.448 105 369 105V103ZM409 104L399 98.2265V109.774L409 104ZM369 105H400V103H369V105Z" fill="#005AE2"/>
<path d="M479 87.3333H489C491.189 87.3333 493.356 87.7643 495.378 88.6019C497.4 89.4395 499.237 90.6672 500.785 92.2148C502.333 93.7624 503.56 95.5998 504.398 97.6219C505.236 99.644 505.667 101.811 505.667 104C505.667 106.189 505.236 108.356 504.398 110.378C503.56 112.4 502.333 114.237 500.785 115.785C499.237 117.333 497.4 118.56 495.378 119.398C493.356 120.235 491.189 120.667 489 120.667H479M459 120.667H449C446.811 120.667 444.644 120.235 442.622 119.398C440.6 118.56 438.763 117.333 437.215 115.785C434.089 112.659 432.333 108.42 432.333 104C432.333 99.5796 434.089 95.3404 437.215 92.2148C440.34 89.0892 444.58 87.3333 449 87.3333H459" stroke="#141414" stroke-width="2" stroke-linecap="round" stroke-linejoin="round"/>
<path d="M455.667 104H482.333" stroke="#141414" stroke-width="2" stroke-linecap="round" stroke-linejoin="round"/>
<path d="M274.558 176.208C273.513 176.208 272.617 175.963 271.87 175.472C271.134 174.981 270.617 174.309 270.318 173.456L271.598 172.72C272.036 174.075 273.033 174.752 274.59 174.752C275.358 174.752 275.945 174.597 276.35 174.288C276.756 173.968 276.958 173.547 276.958 173.024C276.958 172.491 276.756 172.091 276.35 171.824C275.945 171.557 275.268 171.275 274.318 170.976C273.849 170.827 273.492 170.709 273.246 170.624C273.001 170.528 272.692 170.389 272.318 170.208C271.956 170.016 271.684 169.824 271.502 169.632C271.321 169.429 271.156 169.168 271.006 168.848C270.868 168.528 270.798 168.165 270.798 167.76C270.798 166.789 271.14 166.021 271.822 165.456C272.505 164.88 273.337 164.592 274.318 164.592C275.204 164.592 275.972 164.816 276.622 165.264C277.284 165.712 277.78 166.304 278.11 167.04L276.862 167.76C276.382 166.608 275.534 166.032 274.318 166.032C273.71 166.032 273.22 166.181 272.846 166.48C272.473 166.779 272.286 167.184 272.286 167.696C272.286 168.187 272.462 168.56 272.814 168.816C273.166 169.072 273.774 169.339 274.638 169.616C274.948 169.712 275.166 169.781 275.294 169.824C275.422 169.867 275.62 169.941 275.886 170.048C276.164 170.155 276.366 170.24 276.494 170.304C276.622 170.368 276.793 170.459 277.006 170.576C277.23 170.693 277.396 170.805 277.502 170.912C277.609 171.019 277.732 171.152 277.87 171.312C278.02 171.461 278.126 171.616 278.19 171.776C278.254 171.936 278.308 172.123 278.35 172.336C278.404 172.539 278.43 172.757 278.43 172.992C278.43 173.973 278.073 174.757 277.358 175.344C276.644 175.92 275.71 176.208 274.558 176.208ZM281.212 172.64C281.35 173.355 281.676 173.909 282.188 174.304C282.71 174.699 283.35 174.896 284.108 174.896C285.164 174.896 285.932 174.507 286.412 173.728L287.596 174.4C286.817 175.605 285.644 176.208 284.076 176.208C282.806 176.208 281.772 175.813 280.972 175.024C280.182 174.224 279.788 173.216 279.788 172C279.788 170.795 280.177 169.792 280.956 168.992C281.734 168.192 282.742 167.792 283.98 167.792C285.153 167.792 286.108 168.208 286.844 169.04C287.59 169.861 287.964 170.853 287.964 172.016C287.964 172.219 287.948 172.427 287.916 172.64H281.212ZM283.98 169.104C283.233 169.104 282.614 169.317 282.124 169.744C281.633 170.16 281.329 170.72 281.212 171.424H286.556C286.438 170.667 286.14 170.091 285.66 169.696C285.18 169.301 284.62 169.104 283.98 169.104ZM296.172 168H297.564V176H296.172V174.624C295.479 175.68 294.471 176.208 293.148 176.208C292.028 176.208 291.074 175.803 290.284 174.992C289.495 174.171 289.1 173.173 289.1 172C289.1 170.827 289.495 169.835 290.284 169.024C291.074 168.203 292.028 167.792 293.148 167.792C294.471 167.792 295.479 168.32 296.172 169.376V168ZM293.324 174.864C294.135 174.864 294.812 174.592 295.356 174.048C295.9 173.493 296.172 172.811 296.172 172C296.172 171.189 295.9 170.512 295.356 169.968C294.812 169.413 294.135 169.136 293.324 169.136C292.524 169.136 291.852 169.413 291.308 169.968C290.764 170.512 290.492 171.189 290.492 172C290.492 172.811 290.764 173.493 291.308 174.048C291.852 174.592 292.524 174.864 293.324 174.864ZM308.313 167.792C309.209 167.792 309.935 168.085 310.489 168.672C311.044 169.248 311.321 170.032 311.321 171.024V176H309.929V171.072C309.929 170.453 309.769 169.973 309.449 169.632C309.129 169.291 308.703 169.12 308.169 169.12C307.572 169.12 307.092 169.323 306.729 169.728C306.377 170.123 306.201 170.731 306.201 171.552V176H304.809V171.072C304.809 170.453 304.655 169.973 304.345 169.632C304.047 169.291 303.636 169.12 303.113 169.12C302.527 169.12 302.036 169.323 301.641 169.728C301.257 170.133 301.065 170.741 301.065 171.552V176H299.673V168H301.065V169.072C301.609 168.219 302.404 167.792 303.449 167.792C304.527 167.792 305.311 168.245 305.801 169.152C306.356 168.245 307.193 167.792 308.313 167.792ZM313.251 176V164.32H314.643V176H313.251ZM317.743 172.64C317.882 173.355 318.207 173.909 318.719 174.304C319.242 174.699 319.882 174.896 320.639 174.896C321.695 174.896 322.463 174.507 322.943 173.728L324.127 174.4C323.348 175.605 322.175 176.208 320.607 176.208C319.338 176.208 318.303 175.813 317.503 175.024C316.714 174.224 316.319 173.216 316.319 172C316.319 170.795 316.708 169.792 317.487 168.992C318.266 168.192 319.274 167.792 320.511 167.792C321.684 167.792 322.639 168.208 323.375 169.04C324.122 169.861 324.495 170.853 324.495 172.016C324.495 172.219 324.479 172.427 324.447 172.64H317.743ZM320.511 169.104C319.764 169.104 319.146 169.317 318.655 169.744C318.164 170.16 317.86 170.72 317.743 171.424H323.087C322.97 170.667 322.671 170.091 322.191 169.696C321.711 169.301 321.151 169.104 320.511 169.104ZM326.983 170.16C326.983 170.469 327.137 170.72 327.447 170.912C327.756 171.093 328.129 171.243 328.567 171.36C329.004 171.467 329.441 171.595 329.879 171.744C330.316 171.883 330.689 172.128 330.999 172.48C331.308 172.821 331.463 173.264 331.463 173.808C331.463 174.533 331.18 175.115 330.615 175.552C330.06 175.989 329.345 176.208 328.471 176.208C327.692 176.208 327.025 176.037 326.471 175.696C325.916 175.355 325.521 174.901 325.287 174.336L326.487 173.648C326.615 174.032 326.855 174.336 327.207 174.56C327.559 174.784 327.98 174.896 328.471 174.896C328.929 174.896 329.308 174.811 329.607 174.64C329.905 174.459 330.055 174.181 330.055 173.808C330.055 173.499 329.9 173.253 329.591 173.072C329.281 172.88 328.908 172.731 328.471 172.624C328.033 172.507 327.596 172.373 327.159 172.224C326.721 172.075 326.348 171.829 326.039 171.488C325.729 171.147 325.575 170.709 325.575 170.176C325.575 169.483 325.841 168.912 326.375 168.464C326.919 168.016 327.596 167.792 328.407 167.792C329.057 167.792 329.633 167.941 330.135 168.24C330.647 168.528 331.031 168.933 331.287 169.456L330.119 170.112C329.831 169.429 329.26 169.088 328.407 169.088C328.012 169.088 327.676 169.184 327.399 169.376C327.121 169.557 326.983 169.819 326.983 170.16ZM333.811 170.16C333.811 170.469 333.965 170.72 334.275 170.912C334.584 171.093 334.957 171.243 335.395 171.36C335.832 171.467 336.269 171.595 336.707 171.744C337.144 171.883 337.517 172.128 337.827 172.48C338.136 172.821 338.291 173.264 338.291 173.808C338.291 174.533 338.008 175.115 337.443 175.552C336.888 175.989 336.173 176.208 335.299 176.208C334.52 176.208 333.853 176.037 333.299 175.696C332.744 175.355 332.349 174.901 332.115 174.336L333.315 173.648C333.443 174.032 333.683 174.336 334.035 174.56C334.387 174.784 334.808 174.896 335.299 174.896C335.757 174.896 336.136 174.811 336.435 174.64C336.733 174.459 336.883 174.181 336.883 173.808C336.883 173.499 336.728 173.253 336.419 173.072C336.109 172.88 335.736 172.731 335.299 172.624C334.861 172.507 334.424 172.373 333.987 172.224C333.549 172.075 333.176 171.829 332.867 171.488C332.557 171.147 332.403 170.709 332.403 170.176C332.403 169.483 332.669 168.912 333.203 168.464C333.747 168.016 334.424 167.792 335.235 167.792C335.885 167.792 336.461 167.941 336.963 168.24C337.475 168.528 337.859 168.933 338.115 169.456L336.947 170.112C336.659 169.429 336.088 169.088 335.235 169.088C334.84 169.088 334.504 169.184 334.227 169.376C333.949 169.557 333.811 169.819 333.811 170.16ZM339.861 176V164.32H341.253V176H339.861ZM348.96 168H350.448L347.184 176.496C346.843 177.403 346.363 178.091 345.744 178.56C345.136 179.04 344.432 179.253 343.632 179.2V177.904C344.614 177.979 345.334 177.435 345.792 176.272L345.936 175.968L342.448 168H343.936L346.656 174.272L348.96 168ZM359.963 169.344H357.835V173.68C357.835 174.075 357.909 174.357 358.059 174.528C358.219 174.688 358.459 174.773 358.779 174.784C359.099 174.784 359.493 174.773 359.963 174.752V176C358.747 176.16 357.856 176.064 357.291 175.712C356.725 175.349 356.443 174.672 356.443 173.68V169.344H354.859V168H356.443V166.176L357.835 165.76V168H359.963V169.344ZM363.05 169.344C363.508 168.352 364.34 167.856 365.546 167.856V169.312C364.863 169.28 364.276 169.461 363.786 169.856C363.295 170.251 363.05 170.885 363.05 171.76V176H361.658V168H363.05V169.344ZM373.094 168H374.486V176H373.094V174.624C372.401 175.68 371.393 176.208 370.07 176.208C368.95 176.208 367.995 175.803 367.206 174.992C366.417 174.171 366.022 173.173 366.022 172C366.022 170.827 366.417 169.835 367.206 169.024C367.995 168.203 368.95 167.792 370.07 167.792C371.393 167.792 372.401 168.32 373.094 169.376V168ZM370.246 174.864C371.057 174.864 371.734 174.592 372.278 174.048C372.822 173.493 373.094 172.811 373.094 172C373.094 171.189 372.822 170.512 372.278 169.968C371.734 169.413 371.057 169.136 370.246 169.136C369.446 169.136 368.774 169.413 368.23 169.968C367.686 170.512 367.414 171.189 367.414 172C367.414 172.811 367.686 173.493 368.23 174.048C368.774 174.592 369.446 174.864 370.246 174.864ZM380.579 167.792C381.518 167.792 382.27 168.091 382.835 168.688C383.4 169.275 383.683 170.075 383.683 171.088V176H382.291V171.168C382.291 170.517 382.115 170.016 381.763 169.664C381.411 169.301 380.926 169.12 380.307 169.12C379.614 169.12 379.054 169.339 378.627 169.776C378.2 170.203 377.987 170.864 377.987 171.76V176H376.595V168H377.987V169.152C378.552 168.245 379.416 167.792 380.579 167.792ZM386.826 170.16C386.826 170.469 386.981 170.72 387.29 170.912C387.6 171.093 387.973 171.243 388.41 171.36C388.848 171.467 389.285 171.595 389.722 171.744C390.16 171.883 390.533 172.128 390.842 172.48C391.152 172.821 391.306 173.264 391.306 173.808C391.306 174.533 391.024 175.115 390.458 175.552C389.904 175.989 389.189 176.208 388.314 176.208C387.536 176.208 386.869 176.037 386.314 175.696C385.76 175.355 385.365 174.901 385.13 174.336L386.33 173.648C386.458 174.032 386.698 174.336 387.05 174.56C387.402 174.784 387.824 174.896 388.314 174.896C388.773 174.896 389.152 174.811 389.45 174.64C389.749 174.459 389.898 174.181 389.898 173.808C389.898 173.499 389.744 173.253 389.434 173.072C389.125 172.88 388.752 172.731 388.314 172.624C387.877 172.507 387.44 172.373 387.002 172.224C386.565 172.075 386.192 171.829 385.882 171.488C385.573 171.147 385.418 170.709 385.418 170.176C385.418 169.483 385.685 168.912 386.218 168.464C386.762 168.016 387.44 167.792 388.25 167.792C388.901 167.792 389.477 167.941 389.978 168.24C390.49 168.528 390.874 168.933 391.13 169.456L389.962 170.112C389.674 169.429 389.104 169.088 388.25 169.088C387.856 169.088 387.52 169.184 387.242 169.376C386.965 169.557 386.826 169.819 386.826 170.16ZM396.895 165.936C395.487 165.819 394.783 166.427 394.783 167.76V168H396.895V169.344H394.783V176H393.391V169.344H392.111V168H393.391V167.76C393.391 166.683 393.689 165.867 394.287 165.312C394.895 164.757 395.764 164.517 396.895 164.592V165.936ZM404.269 174.992C403.448 175.803 402.45 176.208 401.277 176.208C400.104 176.208 399.106 175.803 398.285 174.992C397.474 174.181 397.069 173.184 397.069 172C397.069 170.816 397.474 169.819 398.285 169.008C399.106 168.197 400.104 167.792 401.277 167.792C402.45 167.792 403.448 168.197 404.269 169.008C405.09 169.819 405.501 170.816 405.501 172C405.501 173.184 405.09 174.181 404.269 174.992ZM401.277 174.848C402.077 174.848 402.749 174.576 403.293 174.032C403.837 173.488 404.109 172.811 404.109 172C404.109 171.189 403.837 170.512 403.293 169.968C402.749 169.424 402.077 169.152 401.277 169.152C400.488 169.152 399.821 169.424 399.277 169.968C398.733 170.512 398.461 171.189 398.461 172C398.461 172.811 398.733 173.488 399.277 174.032C399.821 174.576 400.488 174.848 401.277 174.848ZM408.534 169.344C408.993 168.352 409.825 167.856 411.03 167.856V169.312C410.347 169.28 409.761 169.461 409.27 169.856C408.779 170.251 408.534 170.885 408.534 171.76V176H407.142V168H408.534V169.344ZM421.032 167.792C421.928 167.792 422.653 168.085 423.208 168.672C423.763 169.248 424.04 170.032 424.04 171.024V176H422.648V171.072C422.648 170.453 422.488 169.973 422.168 169.632C421.848 169.291 421.421 169.12 420.888 169.12C420.291 169.12 419.811 169.323 419.448 169.728C419.096 170.123 418.92 170.731 418.92 171.552V176H417.528V171.072C417.528 170.453 417.373 169.973 417.064 169.632C416.765 169.291 416.355 169.12 415.832 169.12C415.245 169.12 414.755 169.323 414.36 169.728C413.976 170.133 413.784 170.741 413.784 171.552V176H412.392V168H413.784V169.072C414.328 168.219 415.123 167.792 416.168 167.792C417.245 167.792 418.029 168.245 418.52 169.152C419.075 168.245 419.912 167.792 421.032 167.792ZM435.554 168H437.042L433.778 176.496C433.437 177.403 432.957 178.091 432.338 178.56C431.73 179.04 431.026 179.253 430.226 179.2V177.904C431.207 177.979 431.927 177.435 432.386 176.272L432.53 175.968L429.042 168H430.53L433.25 174.272L435.554 168ZM444.644 174.992C443.823 175.803 442.825 176.208 441.652 176.208C440.479 176.208 439.481 175.803 438.66 174.992C437.849 174.181 437.444 173.184 437.444 172C437.444 170.816 437.849 169.819 438.66 169.008C439.481 168.197 440.479 167.792 441.652 167.792C442.825 167.792 443.823 168.197 444.644 169.008C445.465 169.819 445.876 170.816 445.876 172C445.876 173.184 445.465 174.181 444.644 174.992ZM441.652 174.848C442.452 174.848 443.124 174.576 443.668 174.032C444.212 173.488 444.484 172.811 444.484 172C444.484 171.189 444.212 170.512 443.668 169.968C443.124 169.424 442.452 169.152 441.652 169.152C440.863 169.152 440.196 169.424 439.652 169.968C439.108 170.512 438.836 171.189 438.836 172C438.836 172.811 439.108 173.488 439.652 174.032C440.196 174.576 440.863 174.848 441.652 174.848ZM453.037 168H454.429V176H453.037V174.848C452.472 175.755 451.608 176.208 450.445 176.208C449.506 176.208 448.754 175.915 448.189 175.328C447.624 174.731 447.341 173.925 447.341 172.912V168H448.733V172.832C448.733 173.483 448.909 173.989 449.261 174.352C449.613 174.704 450.098 174.88 450.717 174.88C451.41 174.88 451.97 174.667 452.397 174.24C452.824 173.803 453.037 173.136 453.037 172.24V168ZM457.94 169.344C458.399 168.352 459.231 167.856 460.436 167.856V169.312C459.754 169.28 459.167 169.461 458.676 169.856C458.186 170.251 457.94 170.885 457.94 171.76V176H456.548V168H457.94V169.344ZM465.798 176V164.32H467.19V176H465.798ZM476.066 174.992C475.244 175.803 474.247 176.208 473.074 176.208C471.9 176.208 470.903 175.803 470.082 174.992C469.271 174.181 468.866 173.184 468.866 172C468.866 170.816 469.271 169.819 470.082 169.008C470.903 168.197 471.9 167.792 473.074 167.792C474.247 167.792 475.244 168.197 476.066 169.008C476.887 169.819 477.298 170.816 477.298 172C477.298 173.184 476.887 174.181 476.066 174.992ZM473.074 174.848C473.874 174.848 474.546 174.576 475.09 174.032C475.634 173.488 475.906 172.811 475.906 172C475.906 171.189 475.634 170.512 475.09 169.968C474.546 169.424 473.874 169.152 473.074 169.152C472.284 169.152 471.618 169.424 471.074 169.968C470.53 170.512 470.258 171.189 470.258 172C470.258 172.811 470.53 173.488 471.074 174.032C471.618 174.576 472.284 174.848 473.074 174.848ZM482.923 167.792C483.861 167.792 484.613 168.091 485.179 168.688C485.744 169.275 486.027 170.075 486.027 171.088V176H484.635V171.168C484.635 170.517 484.459 170.016 484.107 169.664C483.755 169.301 483.269 169.12 482.651 169.12C481.957 169.12 481.397 169.339 480.971 169.776C480.544 170.203 480.331 170.864 480.331 171.76V176H478.939V168H480.331V169.152C480.896 168.245 481.76 167.792 482.923 167.792ZM494.61 168H495.986V175.664C495.986 176.848 495.586 177.765 494.786 178.416C493.986 179.077 493.026 179.408 491.906 179.408C491.01 179.408 490.237 179.237 489.586 178.896C488.935 178.565 488.445 178.085 488.114 177.456L489.33 176.768C489.767 177.664 490.637 178.112 491.938 178.112C492.77 178.112 493.421 177.893 493.89 177.456C494.37 177.019 494.61 176.421 494.61 175.664V174.528C493.906 175.595 492.903 176.128 491.602 176.128C490.461 176.128 489.495 175.723 488.706 174.912C487.917 174.101 487.522 173.115 487.522 171.952C487.522 170.789 487.917 169.808 488.706 169.008C489.495 168.197 490.461 167.792 491.602 167.792C492.914 167.792 493.917 168.32 494.61 169.376V168ZM489.73 173.984C490.274 174.528 490.951 174.8 491.762 174.8C492.573 174.8 493.25 174.528 493.794 173.984C494.338 173.44 494.61 172.763 494.61 171.952C494.61 171.152 494.338 170.48 493.794 169.936C493.25 169.392 492.573 169.12 491.762 169.12C490.951 169.12 490.274 169.392 489.73 169.936C489.186 170.48 488.914 171.152 488.914 171.952C488.914 172.763 489.186 173.44 489.73 173.984ZM509.327 175.136C508.548 175.851 507.54 176.208 506.303 176.208C505.066 176.208 504.052 175.851 503.263 175.136C502.484 174.411 502.095 173.445 502.095 172.24V164.8H503.583V172.176C503.583 172.965 503.818 173.595 504.287 174.064C504.756 174.523 505.428 174.752 506.303 174.752C507.178 174.752 507.85 174.523 508.319 174.064C508.788 173.595 509.023 172.965 509.023 172.176V164.8H510.495V172.24C510.495 173.445 510.106 174.411 509.327 175.136ZM519.41 176L516.898 171.712H514.258V176H512.77V164.8H517.25C518.21 164.8 519.032 165.141 519.714 165.824C520.397 166.496 520.738 167.312 520.738 168.272C520.738 168.997 520.52 169.659 520.082 170.256C519.656 170.853 519.101 171.275 518.418 171.52L521.058 176H519.41ZM514.258 166.192V170.368H517.25C517.805 170.368 518.274 170.165 518.658 169.76C519.053 169.344 519.25 168.848 519.25 168.272C519.25 167.696 519.053 167.205 518.658 166.8C518.274 166.395 517.805 166.192 517.25 166.192H514.258ZM524.04 174.592H528.872V176H522.552V164.8H524.04V174.592ZM531.42 170.16C531.42 170.469 531.575 170.72 531.884 170.912C532.193 171.093 532.567 171.243 533.004 171.36C533.441 171.467 533.879 171.595 534.316 171.744C534.753 171.883 535.127 172.128 535.436 172.48C535.745 172.821 535.9 173.264 535.9 173.808C535.9 174.533 535.617 175.115 535.052 175.552C534.497 175.989 533.783 176.208 532.908 176.208C532.129 176.208 531.463 176.037 530.908 175.696C530.353 175.355 529.959 174.901 529.724 174.336L530.924 173.648C531.052 174.032 531.292 174.336 531.644 174.56C531.996 174.784 532.417 174.896 532.908 174.896C533.367 174.896 533.745 174.811 534.044 174.64C534.343 174.459 534.492 174.181 534.492 173.808C534.492 173.499 534.337 173.253 534.028 173.072C533.719 172.88 533.345 172.731 532.908 172.624C532.471 172.507 532.033 172.373 531.596 172.224C531.159 172.075 530.785 171.829 530.476 171.488C530.167 171.147 530.012 170.709 530.012 170.176C530.012 169.483 530.279 168.912 530.812 168.464C531.356 168.016 532.033 167.792 532.844 167.792C533.495 167.792 534.071 167.941 534.572 168.24C535.084 168.528 535.468 168.933 535.724 169.456L534.556 170.112C534.268 169.429 533.697 169.088 532.844 169.088C532.449 169.088 532.113 169.184 531.836 169.376C531.559 169.557 531.42 169.819 531.42 170.16ZM542.252 166.544C541.986 166.544 541.762 166.453 541.58 166.272C541.399 166.091 541.308 165.872 541.308 165.616C541.308 165.36 541.399 165.141 541.58 164.96C541.762 164.768 541.986 164.672 542.252 164.672C542.508 164.672 542.727 164.768 542.908 164.96C543.09 165.141 543.18 165.36 543.18 165.616C543.18 165.872 543.09 166.091 542.908 166.272C542.727 166.453 542.508 166.544 542.252 166.544ZM541.548 176V168H542.94V176H541.548ZM549.048 167.792C549.986 167.792 550.738 168.091 551.304 168.688C551.869 169.275 552.152 170.075 552.152 171.088V176H550.76V171.168C550.76 170.517 550.584 170.016 550.232 169.664C549.88 169.301 549.394 169.12 548.776 169.12C548.082 169.12 547.522 169.339 547.096 169.776C546.669 170.203 546.456 170.864 546.456 171.76V176H545.064V168H546.456V169.152C547.021 168.245 547.885 167.792 549.048 167.792ZM558.447 169.344H556.319V173.68C556.319 174.075 556.394 174.357 556.543 174.528C556.703 174.688 556.943 174.773 557.263 174.784C557.583 174.784 557.978 174.773 558.447 174.752V176C557.231 176.16 556.34 176.064 555.775 175.712C555.21 175.349 554.927 174.672 554.927 173.68V169.344H553.343V168H554.927V166.176L556.319 165.76V168H558.447V169.344ZM566.441 174.992C565.619 175.803 564.622 176.208 563.449 176.208C562.275 176.208 561.278 175.803 560.457 174.992C559.646 174.181 559.241 173.184 559.241 172C559.241 170.816 559.646 169.819 560.457 169.008C561.278 168.197 562.275 167.792 563.449 167.792C564.622 167.792 565.619 168.197 566.441 169.008C567.262 169.819 567.673 170.816 567.673 172C567.673 173.184 567.262 174.181 566.441 174.992ZM563.449 174.848C564.249 174.848 564.921 174.576 565.465 174.032C566.009 173.488 566.281 172.811 566.281 172C566.281 171.189 566.009 170.512 565.465 169.968C564.921 169.424 564.249 169.152 563.449 169.152C562.659 169.152 561.993 169.424 561.449 169.968C560.905 170.512 560.633 171.189 560.633 172C560.633 172.811 560.905 173.488 561.449 174.032C561.993 174.576 562.659 174.848 563.449 174.848ZM577.042 176.208C575.836 176.208 574.828 175.803 574.018 174.992C573.218 174.181 572.818 173.184 572.818 172C572.818 170.805 573.218 169.808 574.018 169.008C574.828 168.197 575.836 167.792 577.042 167.792C577.82 167.792 578.53 167.979 579.17 168.352C579.81 168.725 580.29 169.227 580.61 169.856L579.122 170.72C578.94 170.336 578.663 170.037 578.29 169.824C577.927 169.6 577.506 169.488 577.026 169.488C576.322 169.488 575.73 169.728 575.25 170.208C574.78 170.688 574.546 171.285 574.546 172C574.546 172.715 574.78 173.312 575.25 173.792C575.73 174.272 576.322 174.512 577.026 174.512C577.495 174.512 577.916 174.4 578.29 174.176C578.674 173.952 578.962 173.653 579.154 173.28L580.642 174.128C580.3 174.768 579.81 175.275 579.17 175.648C578.53 176.021 577.82 176.208 577.042 176.208ZM585.542 176.208C584.368 176.208 583.371 175.803 582.55 174.992C581.728 174.181 581.318 173.184 581.318 172C581.318 170.816 581.728 169.819 582.55 169.008C583.371 168.197 584.368 167.792 585.542 167.792C586.726 167.792 587.723 168.197 588.534 169.008C589.355 169.819 589.766 170.816 589.766 172C589.766 173.184 589.355 174.181 588.534 174.992C587.723 175.803 586.726 176.208 585.542 176.208ZM583.766 173.808C584.246 174.288 584.838 174.528 585.542 174.528C586.246 174.528 586.838 174.288 587.318 173.808C587.798 173.328 588.038 172.725 588.038 172C588.038 171.275 587.798 170.672 587.318 170.192C586.838 169.712 586.246 169.472 585.542 169.472C584.838 169.472 584.246 169.712 583.766 170.192C583.286 170.672 583.046 171.275 583.046 172C583.046 172.725 583.286 173.328 583.766 173.808ZM595.536 167.792C596.454 167.792 597.195 168.085 597.76 168.672C598.326 169.259 598.608 170.064 598.608 171.088V176H596.88V171.264C596.88 170.667 596.72 170.208 596.4 169.888C596.08 169.568 595.643 169.408 595.088 169.408C594.48 169.408 593.99 169.6 593.616 169.984C593.243 170.357 593.056 170.933 593.056 171.712V176H591.328V168H593.056V169.024C593.579 168.203 594.406 167.792 595.536 167.792ZM604.245 176.208C603.04 176.208 602.032 175.803 601.221 174.992C600.421 174.181 600.021 173.184 600.021 172C600.021 170.805 600.421 169.808 601.221 169.008C602.032 168.197 603.04 167.792 604.245 167.792C605.024 167.792 605.733 167.979 606.373 168.352C607.013 168.725 607.493 169.227 607.813 169.856L606.325 170.72C606.144 170.336 605.866 170.037 605.493 169.824C605.13 169.6 604.709 169.488 604.229 169.488C603.525 169.488 602.933 169.728 602.453 170.208C601.984 170.688 601.749 171.285 601.749 172C601.749 172.715 601.984 173.312 602.453 173.792C602.933 174.272 603.525 174.512 604.229 174.512C604.698 174.512 605.12 174.4 605.493 174.176C605.877 173.952 606.165 173.653 606.357 173.28L607.845 174.128C607.504 174.768 607.013 175.275 606.373 175.648C605.733 176.021 605.024 176.208 604.245 176.208ZM610.726 166.48C610.513 166.693 610.257 166.8 609.958 166.8C609.659 166.8 609.398 166.693 609.174 166.48C608.961 166.256 608.854 165.995 608.854 165.696C608.854 165.397 608.961 165.141 609.174 164.928C609.387 164.704 609.649 164.592 609.958 164.592C610.267 164.592 610.529 164.704 610.742 164.928C610.955 165.141 611.062 165.397 611.062 165.696C611.062 165.995 610.95 166.256 610.726 166.48ZM609.094 176V168H610.822V176H609.094ZM614.333 170.208C614.333 170.475 614.477 170.688 614.765 170.848C615.064 170.997 615.421 171.131 615.837 171.248C616.264 171.355 616.691 171.483 617.117 171.632C617.544 171.781 617.901 172.037 618.189 172.4C618.488 172.752 618.637 173.2 618.637 173.744C618.637 174.512 618.339 175.115 617.741 175.552C617.155 175.989 616.413 176.208 615.517 176.208C614.728 176.208 614.051 176.043 613.485 175.712C612.92 175.381 612.509 174.923 612.253 174.336L613.741 173.472C614.019 174.24 614.611 174.624 615.517 174.624C616.424 174.624 616.877 174.325 616.877 173.728C616.877 173.472 616.728 173.264 616.429 173.104C616.141 172.944 615.784 172.811 615.357 172.704C614.941 172.587 614.52 172.453 614.093 172.304C613.667 172.155 613.304 171.909 613.005 171.568C612.717 171.216 612.573 170.773 612.573 170.24C612.573 169.504 612.851 168.912 613.405 168.464C613.971 168.016 614.669 167.792 615.501 167.792C616.163 167.792 616.749 167.941 617.261 168.24C617.784 168.528 618.184 168.933 618.461 169.456L617.005 170.272C616.728 169.664 616.227 169.36 615.501 169.36C615.171 169.36 614.893 169.435 614.669 169.584C614.445 169.723 614.333 169.931 614.333 170.208ZM621.313 172.736C621.441 173.344 621.735 173.813 622.193 174.144C622.652 174.464 623.212 174.624 623.873 174.624C624.791 174.624 625.479 174.293 625.937 173.632L627.361 174.464C626.572 175.627 625.404 176.208 623.857 176.208C622.556 176.208 621.505 175.813 620.705 175.024C619.905 174.224 619.505 173.216 619.505 172C619.505 170.805 619.9 169.808 620.689 169.008C621.479 168.197 622.492 167.792 623.729 167.792C624.903 167.792 625.863 168.203 626.609 169.024C627.367 169.845 627.745 170.843 627.745 172.016C627.745 172.197 627.724 172.437 627.681 172.736H621.313ZM621.297 171.328H626.001C625.884 170.677 625.612 170.187 625.185 169.856C624.769 169.525 624.279 169.36 623.713 169.36C623.073 169.36 622.54 169.536 622.113 169.888C621.687 170.24 621.415 170.72 621.297 171.328ZM314.25 192H315.642V200H314.25V198.624C313.557 199.68 312.549 200.208 311.226 200.208C310.106 200.208 309.152 199.803 308.362 198.992C307.573 198.171 307.178 197.173 307.178 196C307.178 194.827 307.573 193.835 308.362 193.024C309.152 192.203 310.106 191.792 311.226 191.792C312.549 191.792 313.557 192.32 314.25 193.376V192ZM311.402 198.864C312.213 198.864 312.89 198.592 313.434 198.048C313.978 197.493 314.25 196.811 314.25 196C314.25 195.189 313.978 194.512 313.434 193.968C312.89 193.413 312.213 193.136 311.402 193.136C310.602 193.136 309.93 193.413 309.386 193.968C308.842 194.512 308.57 195.189 308.57 196C308.57 196.811 308.842 197.493 309.386 198.048C309.93 198.592 310.602 198.864 311.402 198.864ZM321.735 191.792C322.674 191.792 323.426 192.091 323.991 192.688C324.557 193.275 324.839 194.075 324.839 195.088V200H323.447V195.168C323.447 194.517 323.271 194.016 322.919 193.664C322.567 193.301 322.082 193.12 321.463 193.12C320.77 193.12 320.21 193.339 319.783 193.776C319.357 194.203 319.143 194.864 319.143 195.76V200H317.751V192H319.143V193.152C319.709 192.245 320.573 191.792 321.735 191.792ZM333.407 188.8H334.799V200H333.407V198.624C332.713 199.68 331.705 200.208 330.383 200.208C329.263 200.208 328.308 199.803 327.519 198.992C326.729 198.171 326.335 197.173 326.335 196C326.335 194.827 326.729 193.835 327.519 193.024C328.308 192.203 329.263 191.792 330.383 191.792C331.705 191.792 332.713 192.32 333.407 193.376V188.8ZM330.559 198.864C331.369 198.864 332.047 198.592 332.591 198.048C333.135 197.493 333.407 196.811 333.407 196C333.407 195.189 333.135 194.512 332.591 193.968C332.047 193.413 331.369 193.136 330.559 193.136C329.759 193.136 329.087 193.413 328.543 193.968C327.999 194.512 327.727 195.189 327.727 196C327.727 196.811 327.999 197.493 328.543 198.048C329.087 198.592 329.759 198.864 330.559 198.864ZM342.412 194.208C342.412 194.475 342.556 194.688 342.844 194.848C343.142 194.997 343.5 195.131 343.916 195.248C344.342 195.355 344.769 195.483 345.196 195.632C345.622 195.781 345.98 196.037 346.268 196.4C346.566 196.752 346.716 197.2 346.716 197.744C346.716 198.512 346.417 199.115 345.82 199.552C345.233 199.989 344.492 200.208 343.596 200.208C342.806 200.208 342.129 200.043 341.564 199.712C340.998 199.381 340.588 198.923 340.332 198.336L341.82 197.472C342.097 198.24 342.689 198.624 343.596 198.624C344.502 198.624 344.956 198.325 344.956 197.728C344.956 197.472 344.806 197.264 344.508 197.104C344.22 196.944 343.862 196.811 343.436 196.704C343.02 196.587 342.598 196.453 342.172 196.304C341.745 196.155 341.382 195.909 341.084 195.568C340.796 195.216 340.652 194.773 340.652 194.24C340.652 193.504 340.929 192.912 341.484 192.464C342.049 192.016 342.748 191.792 343.58 191.792C344.241 191.792 344.828 191.941 345.34 192.24C345.862 192.528 346.262 192.933 346.54 193.456L345.084 194.272C344.806 193.664 344.305 193.36 343.58 193.36C343.249 193.36 342.972 193.435 342.748 193.584C342.524 193.723 342.412 193.931 342.412 194.208ZM352.349 191.792C353.266 191.792 354.007 192.085 354.573 192.672C355.138 193.259 355.421 194.064 355.421 195.088V200H353.693V195.264C353.693 194.667 353.533 194.208 353.213 193.888C352.893 193.568 352.455 193.408 351.901 193.408C351.293 193.408 350.802 193.6 350.429 193.984C350.055 194.357 349.869 194.933 349.869 195.712V200H348.141V188.8H349.869V193.024C350.391 192.203 351.218 191.792 352.349 191.792ZM363.617 192H365.345V200H363.617V198.848C362.967 199.755 362.033 200.208 360.817 200.208C359.719 200.208 358.78 199.803 358.001 198.992C357.223 198.171 356.833 197.173 356.833 196C356.833 194.816 357.223 193.819 358.001 193.008C358.78 192.197 359.719 191.792 360.817 191.792C362.033 191.792 362.967 192.24 363.617 193.136V192ZM359.281 197.84C359.761 198.32 360.364 198.56 361.089 198.56C361.815 198.56 362.417 198.32 362.897 197.84C363.377 197.349 363.617 196.736 363.617 196C363.617 195.264 363.377 194.656 362.897 194.176C362.417 193.685 361.815 193.44 361.089 193.44C360.364 193.44 359.761 193.685 359.281 194.176C358.801 194.656 358.561 195.264 358.561 196C358.561 196.736 358.801 197.349 359.281 197.84ZM369.088 193.344C369.525 192.352 370.346 191.856 371.552 191.856V193.728C370.89 193.685 370.314 193.845 369.824 194.208C369.333 194.56 369.088 195.147 369.088 195.968V200H367.36V192H369.088V193.344ZM373.813 196.736C373.941 197.344 374.235 197.813 374.693 198.144C375.152 198.464 375.712 198.624 376.373 198.624C377.291 198.624 377.979 198.293 378.437 197.632L379.861 198.464C379.072 199.627 377.904 200.208 376.357 200.208C375.056 200.208 374.005 199.813 373.205 199.024C372.405 198.224 372.005 197.216 372.005 196C372.005 194.805 372.4 193.808 373.189 193.008C373.979 192.197 374.992 191.792 376.229 191.792C377.403 191.792 378.363 192.203 379.109 193.024C379.867 193.845 380.245 194.843 380.245 196.016C380.245 196.197 380.224 196.437 380.181 196.736H373.813ZM373.797 195.328H378.501C378.384 194.677 378.112 194.187 377.685 193.856C377.269 193.525 376.779 193.36 376.213 193.36C375.573 193.36 375.04 193.536 374.613 193.888C374.187 194.24 373.915 194.72 373.797 195.328ZM388.055 192H389.783V200H388.055V198.848C387.404 199.755 386.471 200.208 385.255 200.208C384.156 200.208 383.218 199.803 382.439 198.992C381.66 198.171 381.271 197.173 381.271 196C381.271 194.816 381.66 193.819 382.439 193.008C383.218 192.197 384.156 191.792 385.255 191.792C386.471 191.792 387.404 192.24 388.055 193.136V192ZM383.719 197.84C384.199 198.32 384.802 198.56 385.527 198.56C386.252 198.56 386.855 198.32 387.335 197.84C387.815 197.349 388.055 196.736 388.055 196C388.055 195.264 387.815 194.656 387.335 194.176C386.855 193.685 386.252 193.44 385.527 193.44C384.802 193.44 384.199 193.685 383.719 194.176C383.239 194.656 382.999 195.264 382.999 196C382.999 196.736 383.239 197.349 383.719 197.84ZM396.325 191.792C397.424 191.792 398.362 192.197 399.141 193.008C399.92 193.819 400.309 194.816 400.309 196C400.309 197.173 399.92 198.171 399.141 198.992C398.362 199.803 397.424 200.208 396.325 200.208C395.109 200.208 394.176 199.755 393.525 198.848V200H391.797V188.8H393.525V193.136C394.176 192.24 395.109 191.792 396.325 191.792ZM394.245 197.84C394.725 198.32 395.328 198.56 396.053 198.56C396.778 198.56 397.381 198.32 397.861 197.84C398.341 197.349 398.581 196.736 398.581 196C398.581 195.264 398.341 194.656 397.861 194.176C397.381 193.685 396.778 193.44 396.053 193.44C395.328 193.44 394.725 193.685 394.245 194.176C393.765 194.656 393.525 195.264 393.525 196C393.525 196.736 393.765 197.349 394.245 197.84ZM401.875 200V188.32H403.603V200H401.875ZM406.97 196.736C407.098 197.344 407.391 197.813 407.85 198.144C408.308 198.464 408.868 198.624 409.53 198.624C410.447 198.624 411.135 198.293 411.594 197.632L413.018 198.464C412.228 199.627 411.06 200.208 409.514 200.208C408.212 200.208 407.162 199.813 406.362 199.024C405.562 198.224 405.162 197.216 405.162 196C405.162 194.805 405.556 193.808 406.346 193.008C407.135 192.197 408.148 191.792 409.386 191.792C410.559 191.792 411.519 192.203 412.266 193.024C413.023 193.845 413.402 194.843 413.402 196.016C413.402 196.197 413.38 196.437 413.338 196.736H406.97ZM406.954 195.328H411.658C411.54 194.677 411.268 194.187 410.842 193.856C410.426 193.525 409.935 193.36 409.37 193.36C408.73 193.36 408.196 193.536 407.77 193.888C407.343 194.24 407.071 194.72 406.954 195.328ZM418.922 200V188.32H420.65V200H418.922ZM424.288 190.48C424.075 190.693 423.819 190.8 423.52 190.8C423.222 190.8 422.96 190.693 422.736 190.48C422.523 190.256 422.416 189.995 422.416 189.696C422.416 189.397 422.523 189.141 422.736 188.928C422.95 188.704 423.211 188.592 423.52 188.592C423.83 188.592 424.091 188.704 424.304 188.928C424.518 189.141 424.624 189.397 424.624 189.696C424.624 189.995 424.512 190.256 424.288 190.48ZM422.656 200V192H424.384V200H422.656ZM430.599 191.792C431.516 191.792 432.257 192.085 432.823 192.672C433.388 193.259 433.671 194.064 433.671 195.088V200H431.943V195.264C431.943 194.667 431.783 194.208 431.463 193.888C431.143 193.568 430.705 193.408 430.151 193.408C429.543 193.408 429.052 193.6 428.679 193.984C428.305 194.357 428.119 194.933 428.119 195.712V200H426.391V192H428.119V193.024C428.641 192.203 429.468 191.792 430.599 191.792ZM442.603 200H440.539L437.259 196.304V200H435.531V188.8H437.259V195.536L440.363 192H442.475L438.955 195.92L442.603 200ZM444.755 194.208C444.755 194.475 444.899 194.688 445.187 194.848C445.486 194.997 445.843 195.131 446.259 195.248C446.686 195.355 447.113 195.483 447.539 195.632C447.966 195.781 448.323 196.037 448.611 196.4C448.91 196.752 449.059 197.2 449.059 197.744C449.059 198.512 448.761 199.115 448.163 199.552C447.577 199.989 446.835 200.208 445.939 200.208C445.15 200.208 444.473 200.043 443.907 199.712C443.342 199.381 442.931 198.923 442.675 198.336L444.163 197.472C444.441 198.24 445.033 198.624 445.939 198.624C446.846 198.624 447.299 198.325 447.299 197.728C447.299 197.472 447.15 197.264 446.851 197.104C446.563 196.944 446.206 196.811 445.779 196.704C445.363 196.587 444.942 196.453 444.515 196.304C444.089 196.155 443.726 195.909 443.427 195.568C443.139 195.216 442.995 194.773 442.995 194.24C442.995 193.504 443.273 192.912 443.827 192.464C444.393 192.016 445.091 191.792 445.923 191.792C446.585 191.792 447.171 191.941 447.683 192.24C448.206 192.528 448.606 192.933 448.883 193.456L447.427 194.272C447.15 193.664 446.649 193.36 445.923 193.36C445.593 193.36 445.315 193.435 445.091 193.584C444.867 193.723 444.755 193.931 444.755 194.208ZM464.05 192H465.506L463.026 200H461.602L459.73 194.08L457.858 200H456.434L453.954 192H455.41L457.17 198.08L459.058 192H460.402L462.29 198.096L464.05 192ZM467.643 190.544C467.376 190.544 467.152 190.453 466.971 190.272C466.789 190.091 466.699 189.872 466.699 189.616C466.699 189.36 466.789 189.141 466.971 188.96C467.152 188.768 467.376 188.672 467.643 188.672C467.899 188.672 468.117 188.768 468.299 188.96C468.48 189.141 468.571 189.36 468.571 189.616C468.571 189.872 468.48 190.091 468.299 190.272C468.117 190.453 467.899 190.544 467.643 190.544ZM466.939 200V192H468.331V200H466.939ZM474.806 193.344H472.678V197.68C472.678 198.075 472.753 198.357 472.902 198.528C473.062 198.688 473.302 198.773 473.622 198.784C473.942 198.784 474.337 198.773 474.806 198.752V200C473.59 200.16 472.7 200.064 472.134 199.712C471.569 199.349 471.286 198.672 471.286 197.68V193.344H469.702V192H471.286V190.176L472.678 189.76V192H474.806V193.344ZM480.438 191.792C481.377 191.792 482.129 192.091 482.694 192.688C483.26 193.275 483.542 194.075 483.542 195.088V200H482.15V195.168C482.15 194.517 481.974 194.016 481.622 193.664C481.27 193.301 480.785 193.12 480.166 193.12C479.473 193.12 478.913 193.339 478.486 193.776C478.06 194.203 477.846 194.864 477.846 195.76V200H476.454V188.8H477.846V193.152C478.412 192.245 479.276 191.792 480.438 191.792ZM490.542 190.544C490.275 190.544 490.051 190.453 489.87 190.272C489.688 190.091 489.598 189.872 489.598 189.616C489.598 189.36 489.688 189.141 489.87 188.96C490.051 188.768 490.275 188.672 490.542 188.672C490.798 188.672 491.016 188.768 491.198 188.96C491.379 189.141 491.47 189.36 491.47 189.616C491.47 189.872 491.379 190.091 491.198 190.272C491.016 190.453 490.798 190.544 490.542 190.544ZM489.838 200.48V192H491.23V200.48C491.23 201.515 490.968 202.277 490.446 202.768C489.923 203.269 489.155 203.483 488.142 203.408V202.064C488.728 202.117 489.155 202.021 489.422 201.776C489.699 201.531 489.838 201.099 489.838 200.48ZM498.865 192H500.257V200H498.865V198.848C498.3 199.755 497.436 200.208 496.273 200.208C495.334 200.208 494.582 199.915 494.017 199.328C493.452 198.731 493.169 197.925 493.169 196.912V192H494.561V196.832C494.561 197.483 494.737 197.989 495.089 198.352C495.441 198.704 495.926 198.88 496.545 198.88C497.238 198.88 497.798 198.667 498.225 198.24C498.652 197.803 498.865 197.136 498.865 196.24V192ZM503.561 194.16C503.561 194.469 503.715 194.72 504.025 194.912C504.334 195.093 504.707 195.243 505.145 195.36C505.582 195.467 506.019 195.595 506.457 195.744C506.894 195.883 507.267 196.128 507.577 196.48C507.886 196.821 508.041 197.264 508.041 197.808C508.041 198.533 507.758 199.115 507.193 199.552C506.638 199.989 505.923 200.208 505.049 200.208C504.27 200.208 503.603 200.037 503.049 199.696C502.494 199.355 502.099 198.901 501.865 198.336L503.065 197.648C503.193 198.032 503.433 198.336 503.785 198.56C504.137 198.784 504.558 198.896 505.049 198.896C505.507 198.896 505.886 198.811 506.185 198.64C506.483 198.459 506.633 198.181 506.633 197.808C506.633 197.499 506.478 197.253 506.169 197.072C505.859 196.88 505.486 196.731 505.049 196.624C504.611 196.507 504.174 196.373 503.737 196.224C503.299 196.075 502.926 195.829 502.617 195.488C502.307 195.147 502.153 194.709 502.153 194.176C502.153 193.483 502.419 192.912 502.953 192.464C503.497 192.016 504.174 191.792 504.985 191.792C505.635 191.792 506.211 191.941 506.713 192.24C507.225 192.528 507.609 192.933 507.865 193.456L506.697 194.112C506.409 193.429 505.838 193.088 504.985 193.088C504.59 193.088 504.254 193.184 503.977 193.376C503.699 193.557 503.561 193.819 503.561 194.16ZM513.728 193.344H511.6V197.68C511.6 198.075 511.675 198.357 511.824 198.528C511.984 198.688 512.224 198.773 512.544 198.784C512.864 198.784 513.259 198.773 513.728 198.752V200C512.512 200.16 511.622 200.064 511.056 199.712C510.491 199.349 510.208 198.672 510.208 197.68V193.344H508.624V192H510.208V190.176L511.6 189.76V192H513.728V193.344ZM523.535 189.936C522.127 189.819 521.423 190.427 521.423 191.76V192H523.535V193.344H521.423V200H520.031V193.344H518.751V192H520.031V191.76C520.031 190.683 520.33 189.867 520.927 189.312C521.535 188.757 522.405 188.517 523.535 188.592V189.936ZM525.134 196.64C525.272 197.355 525.598 197.909 526.11 198.304C526.632 198.699 527.272 198.896 528.03 198.896C529.086 198.896 529.854 198.507 530.334 197.728L531.518 198.4C530.739 199.605 529.566 200.208 527.998 200.208C526.728 200.208 525.694 199.813 524.894 199.024C524.104 198.224 523.71 197.216 523.71 196C523.71 194.795 524.099 193.792 524.878 192.992C525.656 192.192 526.664 191.792 527.902 191.792C529.075 191.792 530.03 192.208 530.766 193.04C531.512 193.861 531.886 194.853 531.886 196.016C531.886 196.219 531.87 196.427 531.838 196.64H525.134ZM527.902 193.104C527.155 193.104 526.536 193.317 526.046 193.744C525.555 194.16 525.251 194.72 525.134 195.424H530.478C530.36 194.667 530.062 194.091 529.582 193.696C529.102 193.301 528.542 193.104 527.902 193.104ZM542.597 192H544.053L541.573 200H540.149L538.277 194.08L536.405 200H534.981L532.501 192H533.957L535.717 198.08L537.605 192H538.949L540.837 198.096L542.597 192ZM553.246 200.208C552.04 200.208 551.038 199.808 550.238 199.008C549.438 198.197 549.038 197.195 549.038 196C549.038 194.805 549.438 193.808 550.238 193.008C551.038 192.197 552.04 191.792 553.246 191.792C554.035 191.792 554.744 191.984 555.374 192.368C556.003 192.741 556.472 193.248 556.782 193.888L555.614 194.56C555.411 194.133 555.096 193.792 554.67 193.536C554.254 193.28 553.779 193.152 553.246 193.152C552.446 193.152 551.774 193.424 551.23 193.968C550.696 194.512 550.43 195.189 550.43 196C550.43 196.8 550.696 197.472 551.23 198.016C551.774 198.56 552.446 198.832 553.246 198.832C553.779 198.832 554.259 198.709 554.686 198.464C555.112 198.208 555.438 197.867 555.662 197.44L556.846 198.128C556.504 198.757 556.014 199.264 555.374 199.648C554.734 200.021 554.024 200.208 553.246 200.208ZM558.22 200V188.32H559.612V200H558.22ZM562.44 190.544C562.173 190.544 561.949 190.453 561.768 190.272C561.586 190.091 561.496 189.872 561.496 189.616C561.496 189.36 561.586 189.141 561.768 188.96C561.949 188.768 562.173 188.672 562.44 188.672C562.696 188.672 562.914 188.768 563.096 188.96C563.277 189.141 563.368 189.36 563.368 189.616C563.368 189.872 563.277 190.091 563.096 190.272C562.914 190.453 562.696 190.544 562.44 190.544ZM561.736 200V192H563.128V200H561.736ZM569.011 200.208C567.806 200.208 566.803 199.808 566.003 199.008C565.203 198.197 564.803 197.195 564.803 196C564.803 194.805 565.203 193.808 566.003 193.008C566.803 192.197 567.806 191.792 569.011 191.792C569.801 191.792 570.51 191.984 571.139 192.368C571.769 192.741 572.238 193.248 572.547 193.888L571.379 194.56C571.177 194.133 570.862 193.792 570.435 193.536C570.019 193.28 569.545 193.152 569.011 193.152C568.211 193.152 567.539 193.424 566.995 193.968C566.462 194.512 566.195 195.189 566.195 196C566.195 196.8 566.462 197.472 566.995 198.016C567.539 198.56 568.211 198.832 569.011 198.832C569.545 198.832 570.025 198.709 570.451 198.464C570.878 198.208 571.203 197.867 571.427 197.44L572.611 198.128C572.27 198.757 571.779 199.264 571.139 199.648C570.499 200.021 569.79 200.208 569.011 200.208ZM580.754 200H579.026L575.378 196.208V200H573.986V188.8H575.378V195.536L578.834 192H580.626L576.802 195.872L580.754 200ZM582.639 194.16C582.639 194.469 582.793 194.72 583.103 194.912C583.412 195.093 583.785 195.243 584.223 195.36C584.66 195.467 585.097 195.595 585.535 195.744C585.972 195.883 586.345 196.128 586.655 196.48C586.964 196.821 587.119 197.264 587.119 197.808C587.119 198.533 586.836 199.115 586.271 199.552C585.716 199.989 585.001 200.208 584.127 200.208C583.348 200.208 582.681 200.037 582.127 199.696C581.572 199.355 581.177 198.901 580.943 198.336L582.143 197.648C582.271 198.032 582.511 198.336 582.863 198.56C583.215 198.784 583.636 198.896 584.127 198.896C584.585 198.896 584.964 198.811 585.263 198.64C585.561 198.459 585.711 198.181 585.711 197.808C585.711 197.499 585.556 197.253 585.247 197.072C584.937 196.88 584.564 196.731 584.127 196.624C583.689 196.507 583.252 196.373 582.815 196.224C582.377 196.075 582.004 195.829 581.695 195.488C581.385 195.147 581.231 194.709 581.231 194.176C581.231 193.483 581.497 192.912 582.031 192.464C582.575 192.016 583.252 191.792 584.063 191.792C584.713 191.792 585.289 191.941 585.791 192.24C586.303 192.528 586.687 192.933 586.943 193.456L585.775 194.112C585.487 193.429 584.916 193.088 584.063 193.088C583.668 193.088 583.332 193.184 583.055 193.376C582.777 193.557 582.639 193.819 582.639 194.16ZM589.475 200.176C589.187 200.176 588.942 200.075 588.739 199.872C588.536 199.669 588.435 199.424 588.435 199.136C588.435 198.848 588.536 198.603 588.739 198.4C588.942 198.197 589.187 198.096 589.475 198.096C589.774 198.096 590.019 198.197 590.211 198.4C590.414 198.603 590.515 198.848 590.515 199.136C590.515 199.424 590.414 199.669 590.211 199.872C590.019 200.075 589.774 200.176 589.475 200.176Z" fill="#141414"/>
<rect x="65.25" y="24.25" width="767.5" height="223.5" rx="23.75" stroke="#005AE2" stroke-width="0.5"/>
</g>
<defs>
<filter id="filter0_b_1_139" x="-147" y="-188" width="1192" height="648" filterUnits="userSpaceOnUse" color-interpolation-filters="sRGB">
<feFlood flood-opacity="0" result="BackgroundImageFix"/>
<feGaussianBlur in="BackgroundImageFix" stdDeviation="106"/>
<feComposite in2="SourceAlpha" operator="in" result="effect1_backgroundBlur_1_139"/>
<feBlend mode="normal" in="SourceGraphic" in2="effect1_backgroundBlur_1_139" result="shape"/>
</filter>
</defs>
</svg>
