<svg width="25" height="24" viewBox="0 0 25 24" fill="none" xmlns="http://www.w3.org/2000/svg">
<path d="M23.6471 0.439381C23.0613 -0.14646 22.1032 -0.14646 21.5173 0.439381L18.4643 3.49483C17.2134 2.66275 15.7779 2.24971 14.3365 2.24971C12.4174 2.24971 10.4737 2.98219 9.03367 4.44691L4.53365 8.94716C1.96732 11.5106 1.65099 15.4747 3.57868 18.384L0.525869 21.4394C-0.0599739 22.0253 -0.0599739 22.9745 0.525869 23.5606C0.81891 23.8536 1.20267 24 1.58643 24C1.97044 24 2.35396 23.8536 2.647 23.5606L5.69981 20.5051C6.95094 21.3372 8.39503 21.7502 9.83648 21.7502C11.7306 21.7502 13.6743 21.0178 15.1393 19.553L19.6307 15.053C22.197 12.4893 22.5133 8.52524 20.5854 5.61595L23.6471 2.56051C24.2329 1.97466 24.2329 1.02522 23.6471 0.439381ZM18.8276 9.74996C18.8276 10.9512 18.3589 12.0821 17.5096 12.9317L13.0182 17.4317C12.1657 18.2813 11.013 18.75 9.83648 18.75C9.15679 18.75 8.50639 18.5832 7.90879 18.2988L10.1223 16.0605C10.7082 15.4747 10.7082 14.5255 10.1223 13.9394C9.56119 13.3536 8.61199 13.3536 8.02615 13.9394L5.7879 16.1777C5.50085 15.5829 5.33669 14.9325 5.33669 14.25C5.33669 13.0488 5.80542 11.9179 6.65502 11.0683L11.1301 6.56828C11.9797 5.71867 13.1353 5.24995 14.3365 5.24995C15.0162 5.24995 15.6635 5.41675 16.2613 5.70115L13.9791 7.9862C13.3933 8.57204 13.3933 9.52124 13.9791 10.1073C14.2722 10.4004 14.6557 10.5468 15.0397 10.5468C15.4206 10.5468 15.8043 10.4004 16.0971 10.1073L18.3767 7.82228C18.6635 8.41676 18.8276 9.0674 18.8276 9.74996Z" fill="#0065FE"/>
</svg>
