<svg xmlns="http://www.w3.org/2000/svg" width="1440" height="299" viewBox="0 0 1440 299" fill="none">
<g clip-path="url(#clip0_1_438)">
<rect y="-50" width="1440" height="400" fill="url(#paint0_linear_1_438)"/>
<g opacity="0.7">
<path fill-rule="evenodd" clip-rule="evenodd" d="M927.5 329.647C937.766 282.37 1017.04 188.03 1059.91 152.427C1099.74 119.339 1120.06 106.675 1177.5 94.9325C1232.59 83.6695 1318.25 99.0958 1375 103.902C1447.73 110.063 1551.64 74.3523 1588.88 121.456C1627.19 169.911 1553.85 226.712 1532.8 280.75C1518.8 316.673 1508.17 350.924 1486.35 384.597C1459.2 426.495 1449.47 485.616 1390.44 500.451C1331.48 515.265 1281.69 460.404 1220.68 451.358C1145.6 440.224 1052.14 481.798 997.002 442.109C943.602 403.67 915.623 384.347 927.5 329.647Z" fill="url(#paint1_linear_1_438)" fill-opacity="0.3"/>
<path fill-rule="evenodd" clip-rule="evenodd" d="M1039.14 349.119C1040.37 307.028 1053.74 265.722 1085.25 230.825C1114.53 198.393 1159.8 177.668 1207.89 162.214C1254.01 147.392 1293.81 163.199 1344 162.214C1408.32 160.953 1500.59 118.073 1540.68 155.687C1581.93 194.38 1527.35 250.505 1517.83 299.465C1511.5 332.01 1507.83 362.796 1494.32 394.095C1477.52 433.041 1478.68 485.395 1429.71 503.685C1380.8 521.95 1328.51 478.728 1273.93 476.409C1206.75 473.555 1132.17 518.258 1077.7 488.729C1024.95 460.131 1037.71 397.818 1039.14 349.119Z" fill="url(#paint2_linear_1_438)" fill-opacity="0.4"/>
<path fill-rule="evenodd" clip-rule="evenodd" d="M1138.13 342.229C1153.45 303.639 1179.72 268.061 1220.54 241.811C1258.49 217.417 1307.23 206.831 1356.79 201.638C1404.33 196.658 1449.84 204.353 1496.46 212.901C1556.21 223.856 1641.64 216.076 1665.94 258.322C1690.93 301.78 1621.67 343.262 1596.37 386.624C1579.56 415.448 1565.8 443.151 1542.79 469.474C1514.15 502.228 1497.57 550.734 1446.24 558.377C1394.97 566.009 1361.32 516.292 1311.76 503.869C1250.76 488.579 1166.9 515.758 1126.62 478.26C1087.61 441.945 1120.39 386.876 1138.13 342.229Z" fill="url(#paint3_linear_1_438)" fill-opacity="0.6"/>
</g>
<g opacity="0.5">
<path fill-rule="evenodd" clip-rule="evenodd" d="M43 192.107C-13.417 169.4 -91.4973 207.114 -122.5 165.197C-151.311 126.244 -160.612 44.6091 -156.682 0.194901C-152.913 -42.405 -129.881 -80.1686 -105.252 -118.689C-73.6885 -168.054 -65.0909 -244.326 6.63529 -255.235C80.4193 -266.456 128.261 -196.084 189.698 -163.545C230.539 -141.915 270.367 -123.208 305.807 -96.7871C349.903 -63.9117 421.468 -37.7091 420.926 8.84397C420.385 55.3315 334.746 72.5759 303.366 112.714C264.745 162.117 286.756 241.729 218.553 267.706C152.499 292.865 108.273 218.379 43 192.107Z" fill="url(#paint4_linear_1_438)" fill-opacity="0.3"/>
<path fill-rule="evenodd" clip-rule="evenodd" d="M130 156.975C77.1864 142.346 13.321 143.549 -20.5001 109.883C-51.9311 78.5958 -50.7569 74.6479 -54.5753 35.6263C-58.2382 -1.8013 -44.3437 -36.7734 -29.1826 -72.5491C-9.75197 -118.397 -14.6996 -185.578 45.9617 -201.606C108.364 -218.094 161.481 -161.191 220.268 -138.461C259.346 -123.351 297.068 -110.693 332.225 -90.9206C375.971 -66.3182 442.541 -50.0253 449.657 -9.45126C456.763 31.067 385.023 53.8784 364.249 91.678C338.681 138.202 370.818 205.501 315.679 234.327C262.279 262.243 191.104 173.9 130 156.975Z" fill="url(#paint5_linear_1_438)" fill-opacity="0.4"/>
<path fill-rule="evenodd" clip-rule="evenodd" d="M167.5 93.0639C123.721 69.6206 11.8413 73.3034 -8.00005 35.88C-26.4387 1.10235 85.3641 9.05234 95.0001 -27.6575C104.243 -62.8673 80.953 -62.5497 107 -92.69C140.382 -131.316 181.646 -89.3365 243 -92.69C306.114 -96.1401 300.736 -178.991 356.14 -165.456C417.702 -150.417 330.381 -66.3471 356.14 -41.4862C388.191 -10.5521 531.325 -42.0129 524.207 -3.24956C517.098 35.4605 443.239 42.9825 411.333 73.9319C372.062 112.023 379.01 180.15 318.434 196.348C259.769 212.034 218.149 120.188 167.5 93.0639Z" fill="url(#paint6_linear_1_438)" fill-opacity="0.6"/>
</g>



</g>
<defs>
<linearGradient id="paint0_linear_1_438" x1="720" y1="-50" x2="720" y2="350" gradientUnits="userSpaceOnUse">
<stop offset="0.9999" stop-color="#1E3448"/>
<stop offset="1" stop-color="#1E3448" stop-opacity="0"/>
</linearGradient>
<linearGradient id="paint1_linear_1_438" x1="1498.68" y1="444.148" x2="1073.3" y2="187.426" gradientUnits="userSpaceOnUse">
<stop stop-color="#9EE6F7" stop-opacity="0"/>
<stop offset="1" stop-color="#9EE6F7" stop-opacity="0.46"/>
</linearGradient>
<linearGradient id="paint2_linear_1_438" x1="1510.69" y1="455.075" x2="1090.61" y2="290.592" gradientUnits="userSpaceOnUse">
<stop stop-color="#9EE6F7" stop-opacity="0"/>
<stop offset="1" stop-color="#9EE6F7" stop-opacity="0.46"/>
</linearGradient>
<linearGradient id="paint3_linear_1_438" x1="1537.32" y1="528.8" x2="1226.12" y2="272.69" gradientUnits="userSpaceOnUse">
<stop stop-color="#005AE2"/>
<stop offset="1" stop-color="#73E6FF" stop-opacity="0.38"/>
</linearGradient>
<linearGradient id="paint4_linear_1_438" x1="396.928" y1="-77.634" x2="140.688" y2="285.345" gradientUnits="userSpaceOnUse">
<stop stop-color="#9EE6F7" stop-opacity="0"/>
<stop offset="1" stop-color="#9EE6F7" stop-opacity="0.46"/>
</linearGradient>
<linearGradient id="paint5_linear_1_438" x1="414.67" y1="-82.5464" x2="238.043" y2="250.013" gradientUnits="userSpaceOnUse">
<stop stop-color="#9EE6F7" stop-opacity="0"/>
<stop offset="1" stop-color="#9EE6F7" stop-opacity="0.46"/>
</linearGradient>
<linearGradient id="paint6_linear_1_438" x1="516.586" y1="-77.2588" x2="255.452" y2="208.884" gradientUnits="userSpaceOnUse">
<stop stop-color="#005AE2"/>
<stop offset="1" stop-color="#73E6FF" stop-opacity="0.38"/>
</linearGradient>
<clipPath id="clip0_1_438">
<rect width="1440" height="299" fill="white"/>
</clipPath>
</defs>
</svg>