<svg width="57" height="56" viewBox="0 0 57 56" fill="none" xmlns="http://www.w3.org/2000/svg">
<g clip-path="url(#clip0_1_202)">
<path d="M31.1 23H34.1C34.7566 23 35.4068 23.1293 36.0134 23.3806C36.6201 23.6319 37.1712 24.0002 37.6355 24.4645C38.0998 24.9288 38.4681 25.48 38.7194 26.0866C38.9707 26.6932 39.1 27.3434 39.1 28C39.1 28.6566 38.9707 29.3068 38.7194 29.9134C38.4681 30.52 38.0998 31.0712 37.6355 31.5355C37.1712 31.9998 36.6201 32.3681 36.0134 32.6194C35.4068 32.8707 34.7566 33 34.1 33H31.1M25.1 33H22.1C21.4434 33 20.7932 32.8707 20.1866 32.6194C19.58 32.3681 19.0288 31.9998 18.5645 31.5355C17.6268 30.5979 17.1 29.3261 17.1 28C17.1 26.6739 17.6268 25.4021 18.5645 24.4645C19.5022 23.5268 20.7739 23 22.1 23H25.1" stroke="#141414" stroke-width="2" stroke-linecap="round" stroke-linejoin="round"/>
<path d="M24.1 28H32.1" stroke="#005AE2" stroke-width="2" stroke-linecap="round" stroke-linejoin="round"/>
</g>
<circle cx="28.1" cy="28" r="28" fill="#3284FF" fill-opacity="0.13"/>
<defs>
<clipPath id="clip0_1_202">
<rect width="24" height="24" fill="white" transform="translate(16.1 16)"/>
</clipPath>
</defs>
</svg>
